<svg width="44" height="54" viewBox="0 0 44 54" fill="none" xmlns="http://www.w3.org/2000/svg">
<path d="M41.84 5.88C41.84 6.52348 41.7133 7.16066 41.467 7.75515C41.2208 8.34965 40.8598 8.88982 40.4048 9.34483C39.9498 9.79983 39.4096 10.1608 38.8151 10.407C38.2207 10.6533 37.5835 10.78 36.94 10.78C35.6404 10.78 34.3941 10.2638 33.4752 9.34483C32.5562 8.4259 32.04 7.17956 32.04 5.88C32.04 4.58044 32.5562 3.33411 33.4752 2.41518C34.3941 1.49625 35.6404 0.980003 36.94 0.980003C37.5835 0.980003 38.2207 1.10675 38.8151 1.35299C39.4096 1.59924 39.9498 1.96017 40.4048 2.41518C40.8598 2.87019 41.2208 3.41036 41.467 4.00485C41.7133 4.59935 41.84 5.23653 41.84 5.88ZM39.34 5.88C39.34 5.25674 39.0924 4.65901 38.6517 4.2183C38.211 3.77759 37.6133 3.53 36.99 3.53C36.3667 3.53 35.769 3.77759 35.3283 4.2183C34.8876 4.65901 34.64 5.25674 34.64 5.88C34.64 6.50326 34.8876 7.10099 35.3283 7.5417C35.769 7.98241 36.3667 8.23 36.99 8.23C37.6133 8.23 38.211 7.98241 38.6517 7.5417C39.0924 7.10099 39.34 6.50326 39.34 5.88Z" fill="#F2994A"/>
<path d="M37.4848 39.0792L39.8328 41.3464C39.9322 41.4816 39.9806 41.6476 39.9695 41.815C39.9584 41.9825 39.8884 42.1406 39.772 42.2614C39.6556 42.3823 39.5003 42.4581 39.3334 42.4755C39.1665 42.4929 38.9988 42.4508 38.86 42.3566L36.4486 40.1648C36.3259 40.0815 35.8558 39.9233 35.7075 39.9268C35.5593 39.9302 35.2059 40.2053 35.0873 40.2943L32.6536 42.4921C32.5184 42.5915 32.3524 42.6399 32.185 42.6288C32.0175 42.6177 31.8594 42.5477 31.7386 42.4313C31.6177 42.3149 31.5419 42.1596 31.5245 41.9927C31.5071 41.8258 31.5492 41.6581 31.6434 41.5193L33.8227 39.0873C33.9061 38.9647 34.1787 38.6125 34.1753 38.4642C34.1718 38.316 34.0036 37.8648 33.9147 37.7462L31.5079 35.3129C31.4085 35.1777 31.3601 35.0117 31.3712 34.8443C31.3823 34.6769 31.4523 34.5187 31.5687 34.3979C31.6851 34.277 31.8404 34.2012 32.0073 34.1838C32.1742 34.1664 32.3419 34.2085 32.4807 34.3028L34.9379 36.6742C35.0605 36.7576 35.5202 37.0467 35.6685 37.0433C35.8167 37.0398 36.3479 36.5825 36.4666 36.4936L38.6871 34.1672C38.8223 34.0678 38.9883 34.0194 39.1557 34.0305C39.3231 34.0416 39.4812 34.1116 39.6021 34.228C39.723 34.3444 39.7988 34.4997 39.8162 34.6666C39.8336 34.8335 39.7915 35.0012 39.6972 35.14L37.6431 37.6166C37.5598 37.7392 37.1257 38.2892 37.1291 38.4374C37.1326 38.5857 37.3958 38.9605 37.4848 39.0792Z" fill="#F2994A"/>
<path d="M24.1464 46.1953L26.4955 48.4614C26.5949 48.5966 26.6434 48.7625 26.6324 48.93C26.6213 49.0974 26.5514 49.2556 26.4351 49.3765C26.3188 49.4974 26.1634 49.5733 25.9965 49.5908C25.8296 49.6083 25.662 49.5662 25.5231 49.472L23.1107 47.2814C22.988 47.1981 22.5178 47.0402 22.3695 47.0437C22.2212 47.0473 21.868 47.3225 21.7494 47.4115L19.3167 49.6105C19.1816 49.71 19.0156 49.7584 18.8482 49.7474C18.6808 49.7364 18.5226 49.6665 18.4017 49.5501C18.2808 49.4338 18.2049 49.2785 18.1874 49.1116C18.1699 48.9447 18.212 48.777 18.3062 48.6381L20.4843 46.2051C20.5676 46.0825 20.8401 45.7302 20.8366 45.5819C20.833 45.4337 20.6647 44.9826 20.5756 44.864L18.1677 42.4318C18.0682 42.2966 18.0197 42.1307 18.0308 41.9633C18.0418 41.7958 18.1117 41.6377 18.228 41.5168C18.3444 41.3959 18.4997 41.3199 18.6666 41.3025C18.8335 41.285 19.0012 41.327 19.1401 41.4212L21.5983 43.7915C21.721 43.8748 22.1809 44.1638 22.3291 44.1602C22.4774 44.1567 23.0084 43.6992 23.127 43.6101L25.3464 41.2827C25.4815 41.1833 25.6475 41.1348 25.8149 41.1458C25.9824 41.1569 26.1405 41.2268 26.2614 41.3431C26.3823 41.4594 26.4582 41.6148 26.4757 41.7817C26.4932 41.9485 26.4512 42.1162 26.357 42.2551L24.304 44.7326C24.2207 44.8553 23.7869 45.4055 23.7904 45.5537C23.7939 45.702 24.0574 46.0767 24.1464 46.1953Z" fill="#F2994A"/>
<path d="M16.1464 16.0803L18.4955 18.3464C18.5949 18.4816 18.6434 18.6475 18.6324 18.8149C18.6213 18.9824 18.5514 19.1405 18.4351 19.2614C18.3188 19.3824 18.1634 19.4583 17.9965 19.4757C17.8296 19.4932 17.662 19.4512 17.5231 19.357L15.1107 17.1664C14.988 17.0831 14.5178 16.9252 14.3695 16.9287C14.2212 16.9322 13.868 17.2075 13.7494 17.2965L11.3167 19.4955C11.1816 19.5949 11.0156 19.6434 10.8482 19.6324C10.6808 19.6213 10.5226 19.5515 10.4017 19.4351C10.2808 19.3188 10.2049 19.1634 10.1874 18.9965C10.1699 18.8297 10.212 18.662 10.3062 18.5231L12.4843 16.0901C12.5676 15.9674 12.8401 15.6151 12.8366 15.4669C12.833 15.3186 12.6647 14.8676 12.5756 14.749L10.1677 12.3168C10.0682 12.1816 10.0197 12.0157 10.0308 11.8482C10.0418 11.6808 10.1117 11.5226 10.228 11.4017C10.3444 11.2808 10.4997 11.2049 10.6666 11.1874C10.8335 11.1699 11.0012 11.212 11.1401 11.3062L13.5983 13.6765C13.721 13.7598 14.1809 14.0487 14.3291 14.0452C14.4774 14.0417 15.0084 13.5842 15.127 13.4951L17.3464 11.1677C17.4815 11.0682 17.6475 11.0198 17.8149 11.0308C17.9824 11.0418 18.1405 11.1117 18.2614 11.2281C18.3823 11.3444 18.4582 11.4997 18.4757 11.6666C18.4932 11.8335 18.4512 12.0012 18.357 12.1401L16.304 14.6176C16.2207 14.7403 15.7869 15.2904 15.7904 15.4387C15.7939 15.5869 16.0574 15.9617 16.1464 16.0803Z" fill="#F2994A"/>
<path d="M35.16 18.4L32.77 20.87C32.6387 21.0092 32.4597 21.0937 32.2687 21.1067C32.0778 21.1197 31.889 21.0602 31.74 20.94L30.83 20.21C30.7402 20.1395 30.6668 20.0504 30.6147 19.9488C30.5627 19.8472 30.5333 19.7356 30.5285 19.6215C30.5238 19.5075 30.5438 19.3938 30.5872 19.2882C30.6306 19.1826 30.6964 19.0877 30.78 19.01L36.41 13.69C36.5633 13.5459 36.7658 13.4665 36.9748 13.4683C37.1839 13.4702 37.383 13.5533 37.53 13.7L43.09 19.22C43.39 19.52 43.4 19.83 43.12 20.15L42.48 20.89C42.4144 20.9656 42.334 21.0271 42.2439 21.0708C42.1538 21.1145 42.0557 21.1394 41.9557 21.1441C41.8557 21.1488 41.7557 21.1331 41.6619 21.098C41.5681 21.0629 41.4824 21.0092 41.41 20.94L38.8 18.45C38.7508 18.4047 38.6893 18.375 38.6233 18.3645C38.5573 18.354 38.4896 18.3632 38.4288 18.3909C38.3679 18.4187 38.3166 18.4637 38.2813 18.5205C38.2459 18.5772 38.2281 18.6432 38.23 18.71C38.6833 26.0433 35.29 30.1767 28.05 31.11C27.6633 31.1633 27.3967 31.0067 27.25 30.64L26.82 29.55C26.6267 29.07 26.7867 28.8033 27.3 28.75C33.38 28.13 36.2 24.75 35.76 18.61C35.72 18.0967 35.52 18.0267 35.16 18.4Z" fill="#F2994A"/>
<path d="M17.96 31.02C18.6503 31.02 19.21 30.4604 19.21 29.77C19.21 29.0796 18.6503 28.52 17.96 28.52C17.2696 28.52 16.71 29.0796 16.71 29.77C16.71 30.4604 17.2696 31.02 17.96 31.02Z" fill="#F2994A"/>
<path d="M23.05 30.97C23.7238 30.97 24.27 30.4238 24.27 29.75C24.27 29.0762 23.7238 28.53 23.05 28.53C22.3762 28.53 21.83 29.0762 21.83 29.75C21.83 30.4238 22.3762 30.97 23.05 30.97Z" fill="#F2994A"/>
<path d="M13 31.74C13.6793 31.74 14.23 31.1893 14.23 30.51C14.23 29.8307 13.6793 29.28 13 29.28C12.3207 29.28 11.77 29.8307 11.77 30.51C11.77 31.1893 12.3207 31.74 13 31.74Z" fill="#F2994A"/>
<path d="M9.19 34.95C9.88036 34.95 10.44 34.3904 10.44 33.7C10.44 33.0096 9.88036 32.45 9.19 32.45C8.49965 32.45 7.94 33.0096 7.94 33.7C7.94 34.3904 8.49965 34.95 9.19 34.95Z" fill="#F2994A"/>
<path d="M7.74 39.6C8.41379 39.6 8.96 39.0538 8.96 38.38C8.96 37.7062 8.41379 37.16 7.74 37.16C7.06622 37.16 6.52 37.7062 6.52 38.38C6.52 39.0538 7.06622 39.6 7.74 39.6Z" fill="#F2994A"/>
<path d="M12.64 47.11C12.64 47.7548 12.513 48.3933 12.2663 48.989C12.0195 49.5847 11.6578 50.126 11.2019 50.5819C10.746 51.0378 10.2047 51.3995 9.60898 51.6462C9.01327 51.893 8.3748 52.02 7.73001 52.02C7.08522 52.02 6.44674 51.893 5.85103 51.6462C5.25532 51.3995 4.71405 51.0378 4.25811 50.5819C3.80218 50.126 3.44051 49.5847 3.19376 48.989C2.94701 48.3933 2.82001 47.7548 2.82001 47.11C2.82001 45.8078 3.33731 44.5589 4.25811 43.6381C5.17892 42.7173 6.42779 42.2 7.73001 42.2C9.03222 42.2 10.2811 42.7173 11.2019 43.6381C12.1227 44.5589 12.64 45.8078 12.64 47.11ZM10.09 47.12C10.09 46.4967 9.84242 45.899 9.40171 45.4583C8.961 45.0176 8.36327 44.77 7.74001 44.77C7.11675 44.77 6.51902 45.0176 6.07831 45.4583C5.6376 45.899 5.39001 46.4967 5.39001 47.12C5.39001 47.7433 5.6376 48.341 6.07831 48.7817C6.51902 49.2224 7.11675 49.47 7.74001 49.47C8.36327 49.47 8.961 49.2224 9.40171 48.7817C9.84242 48.341 10.09 47.7433 10.09 47.12Z" fill="#F2994A"/>
</svg>
