<svg width="51" height="26" viewBox="0 0 51 26" fill="none" xmlns="http://www.w3.org/2000/svg">
<path d="M2.50562 0.0167102L0.585627 0.0234122C0.342623 0.0242605 0.146318 0.221942 0.147166 0.464946L0.21286 19.2848C0.213708 19.5278 0.411389 19.7241 0.654393 19.7233L2.57438 19.7166C2.81739 19.7157 3.01369 19.5181 3.01284 19.2751L2.94715 0.455172C2.9463 0.212168 2.74862 0.0158619 2.50562 0.0167102Z" fill="#BBBBBA"/>
<path d="M10.8486 19.8306C8.9521 19.7345 7.17241 18.87 5.90103 17.4274C4.62965 15.9847 3.97072 14.082 4.0692 12.1378C4.11796 11.1751 4.35121 10.2312 4.75562 9.36006C5.16004 8.48887 5.7277 7.70742 6.4262 7.06035C7.12471 6.41327 7.94036 5.91323 8.82661 5.58878C9.71286 5.26433 10.6523 5.12183 11.5914 5.1694C13.4879 5.26549 15.2676 6.12997 16.539 7.57264C17.8103 9.01532 18.4693 10.918 18.3708 12.8622C18.322 13.8249 18.0888 14.7688 17.6844 15.6399C17.28 16.5111 16.7123 17.2926 16.0138 17.9397C15.3153 18.5867 14.4996 19.0868 13.6134 19.4112C12.7271 19.7357 11.7877 19.8782 10.8486 19.8306ZM11.9682 16.8643C13.089 16.6687 14.0841 16.0234 14.7344 15.0703C15.3848 14.1173 15.6372 12.9346 15.4361 11.7824C15.235 10.6302 14.5969 9.60296 13.6622 8.92657C12.7274 8.25019 11.5726 7.98009 10.4518 8.1757C9.33096 8.37132 8.33592 9.01663 7.68557 9.96967C7.03521 10.9227 6.78281 12.1054 6.9839 13.2576C7.185 14.4098 7.82311 15.437 8.75784 16.1134C9.69258 16.7898 10.8474 17.0599 11.9682 16.8643Z" fill="#BBBBBA"/>
<path d="M30.55 19.77C28.44 19.73 26.13 20.01 24.28 19.24C13.81 14.94 24.42 -1.6 32.51 7.83C34.55 10.21 34.34 14.22 34.26 17.24C34.11 22.39 31.38 25.83 25.97 25.64C25.55 25.6267 25.33 25.41 25.31 24.99L25.26 23.92C25.256 23.8128 25.273 23.7058 25.3101 23.6053C25.3473 23.5048 25.4038 23.4129 25.4764 23.3347C25.5489 23.2565 25.6361 23.1938 25.7329 23.1501C25.8296 23.1063 25.934 23.0825 26.04 23.08C28.1267 23.0267 29.7567 22.1733 30.93 20.52C30.9794 20.448 31.0087 20.3639 31.0147 20.2767C31.0207 20.1896 31.0032 20.1027 30.9641 20.0255C30.9249 19.9483 30.8657 19.8837 30.7927 19.8386C30.7197 19.7936 30.6358 19.7699 30.55 19.77ZM23.16 14.07C24.68 17.0433 27.23 17.8967 30.81 16.63C31.0367 16.5433 31.1667 16.38 31.2 16.14C32.94 3.62 20.11 8.1 23.16 14.07Z" fill="#BBBBBA"/>
<path d="M42.5947 19.7932C40.7053 19.6312 38.9593 18.7075 37.7405 17.2252C36.5218 15.743 35.9303 13.8236 36.0961 11.8893C36.1782 10.9315 36.4438 9.99894 36.8777 9.14477C37.3115 8.2906 37.9052 7.53158 38.6248 6.91105C39.3444 6.29053 40.1758 5.82064 41.0715 5.52822C41.9672 5.23581 42.9098 5.12659 43.8453 5.2068C45.7346 5.36878 47.4807 6.29251 48.6995 7.77477C49.9182 9.25704 50.5097 11.1764 50.3439 13.1107C50.2618 14.0685 49.9962 15.0011 49.5623 15.8552C49.1285 16.7094 48.5348 17.4684 47.8152 18.0889C47.0956 18.7095 46.2642 19.1794 45.3685 19.4718C44.4728 19.7642 43.5302 19.8734 42.5947 19.7932ZM47.62 12.5C47.62 11.9235 47.5064 11.3526 47.2858 10.82C47.0652 10.2874 46.7418 9.80345 46.3342 9.3958C45.9265 8.98815 45.4426 8.66479 44.91 8.44417C44.3774 8.22355 43.8065 8.11 43.23 8.11C42.0657 8.11 40.9491 8.57252 40.1258 9.3958C39.3025 10.2191 38.84 11.3357 38.84 12.5C38.84 13.6643 39.3025 14.7809 40.1258 15.6042C40.9491 16.4275 42.0657 16.89 43.23 16.89C43.8065 16.89 44.3774 16.7765 44.91 16.5558C45.4426 16.3352 45.9265 16.0118 46.3342 15.6042C46.7418 15.1965 47.0652 14.7126 47.2858 14.18C47.5064 13.6474 47.62 13.0765 47.62 12.5Z" fill="#BBBBBA"/>
</svg>
