<?xml version="1.0" encoding="UTF-8" standalone="no"?>
<!DOCTYPE svg PUBLIC "-//W3C//DTD SVG 1.1//EN" "http://www.w3.org/Graphics/SVG/1.1/DTD/svg11.dtd">
<svg xmlns="http://www.w3.org/2000/svg" version="1.1" viewBox="0.00 0.00 55.00 45.00">
<path fill="#f7974c" d="
  M 12.41 22.56
  C 9.36 23.59 2.03 27.45 6.13 31.75
  Q 9.68 35.49 14.89 36.42
  Q 15.41 36.52 15.52 35.99
  L 16.06 33.21
  A 1.30 1.30 0.0 0 1 18.27 32.55
  L 24.30 38.79
  A 1.23 1.22 57.0 0 1 23.88 40.78
  L 16.07 43.96
  A 1.52 1.52 0.0 0 1 14.06 42.06
  L 14.58 40.52
  A 0.90 0.90 0.0 0 0 13.97 39.36
  Q 8.46 37.81 5.07 34.97
  C -3.08 28.13 6.29 21.21 12.56 19.53
  Q 13.00 19.42 13.00 18.96
  L 13.00 10.64
  A 2.76 2.76 0.0 0 1 14.36 8.26
  L 26.45 1.17
  A 1.79 1.78 -45.2 0 1 28.25 1.16
  L 40.98 8.42
  A 1.99 1.99 0.0 0 1 42.00 10.16
  L 42.00 18.76
  Q 42.00 19.44 42.65 19.61
  C 50.88 21.86 58.45 29.98 47.89 36.34
  Q 40.48 40.80 31.93 40.87
  A 1.45 1.45 0.0 0 1 30.58 38.86
  Q 30.72 38.53 31.30 38.20
  Q 31.68 37.99 32.22 37.95
  C 37.26 37.54 46.09 35.66 49.08 31.62
  C 52.39 27.17 45.76 23.57 42.63 22.60
  Q 42.05 22.41 42.03 23.03
  L 41.98 24.77
  Q 41.97 25.39 41.43 25.70
  L 27.94 33.52
  Q 27.44 33.81 26.94 33.52
  L 13.59 25.83
  Q 13.03 25.51 13.01 24.86
  L 12.97 22.95
  Q 12.95 22.38 12.41 22.56
  Z
  M 27.21 15.44
  A 0.50 0.50 0.0 0 0 27.71 15.44
  L 36.63 10.28
  A 0.50 0.50 0.0 0 0 36.63 9.42
  L 27.65 4.19
  A 0.50 0.50 0.0 0 0 27.15 4.19
  L 18.19 9.38
  A 0.50 0.50 0.0 0 0 18.19 10.24
  L 27.21 15.44
  Z
  M 25.51 29.25
  A 0.32 0.32 0.0 0 0 25.98 28.98
  L 26.06 18.24
  A 0.32 0.32 0.0 0 0 25.90 17.96
  L 16.48 12.55
  A 0.32 0.32 0.0 0 0 16.00 12.82
  L 16.00 23.68
  A 0.32 0.32 0.0 0 0 16.16 23.96
  L 25.51 29.25
  Z
  M 29.16 17.94
  A 0.33 0.33 0.0 0 0 28.99 18.23
  L 29.00 28.98
  A 0.33 0.33 0.0 0 0 29.49 29.27
  L 38.84 23.93
  A 0.33 0.33 0.0 0 0 39.01 23.64
  L 39.00 12.88
  A 0.33 0.33 0.0 0 0 38.51 12.59
  L 29.16 17.94
  Z
  M 18.32 37.67
  L 17.77 39.64
  Q 17.63 40.13 18.12 39.99
  L 19.75 39.51
  A 0.45 0.45 0.0 0 0 19.96 38.78
  L 18.86 37.54
  Q 18.48 37.11 18.32 37.67
  Z"
/>
</svg>
